<svg xmlns="http://www.w3.org/2000/svg" fill="none" viewBox="0 0 42 42">
    <g clip-path="url(#ezeth_svg__clip0_5511_268874)">
        <mask id="ezeth_svg__mask0_5511_268874" width="42" height="42" x="0" y="0" maskUnits="userSpaceOnUse" style="mask-type:luminance">
            <path fill="white" d="M42 21C42 9.40202 32.598 0 21 0C9.40202 0 0 9.40202 0 21C0 32.598 9.40202 42 21 42C32.598 42 42 32.598 42 21Z"/>
        </mask>
        <g mask="url(#ezeth_svg__mask0_5511_268874)">
            <path fill="white" d="M42 21C42 9.40202 32.598 0 21 0C9.40202 0 0 9.40202 0 21C0 32.598 9.40202 42 21 42C32.598 42 42 32.598 42 21Z"/>
            <mask id="ezeth_svg__mask1_5511_268874" width="20" height="32" x="11" y="4" maskUnits="userSpaceOnUse" style="mask-type:luminance">
                <path fill="white" d="M30.3337 4.79883H11.668V35.1985H30.3337V4.79883Z"/>
            </mask>
            <g mask="url(#ezeth_svg__mask1_5511_268874)">
                <path fill="#C2EC69" d="M20.9973 4.79883L11.668 20.2804L20.9973 16.0402V4.79883Z"/>
                <path fill="#E3F7B9" d="M20.9973 16.0391L11.668 20.2794L20.9973 25.7955V16.0391Z"/>
                <path fill="#90C128" d="M30.3272 20.2804L20.9961 4.79883V16.0402L30.3272 20.2804Z"/>
                <path fill="#A4DB2E" d="M20.9961 25.7955L30.3272 20.2794L20.9961 16.0391V25.7955Z"/>
                <path fill="#C2EC69" d="M11.668 22.0508L20.9973 35.1988V27.5634L11.668 22.0508Z"/>
                <path fill="#6B8D1D" d="M20.9961 27.5634V35.1988L30.3325 22.0508L20.9961 27.5634Z"/>
            </g>
        </g>
    </g>
    <defs>
        <clipPath id="ezeth_svg__clip0_5511_268874">
            <rect width="42" height="42" fill="white"/>
        </clipPath>
    </defs>
</svg>
