<svg xmlns="http://www.w3.org/2000/svg" fill="none" viewBox="0 0 42 42">
    <g clip-path="url(#nke_svg__clip0_4532_196528)">
        <mask id="nke_svg__mask0_4532_196528" width="42" height="42" x="0" y="0" maskUnits="userSpaceOnUse" style="mask-type:luminance">
            <path fill="white" d="M0 0H42V42H0V0Z"/>
        </mask>
        <g mask="url(#nke_svg__mask0_4532_196528)">
            <mask id="nke_svg__mask1_4532_196528" width="42" height="42" x="0" y="0" maskUnits="userSpaceOnUse" style="mask-type:luminance">
                <path fill="white" d="M42 21C42 9.40202 32.598 0 21 0C9.40202 0 0 9.40202 0 21C0 32.598 9.40202 42 21 42C32.598 42 42 32.598 42 21Z"/>
            </mask>
            <g mask="url(#nke_svg__mask1_4532_196528)">
                <path fill="#F5F5F5" d="M42 21C42 9.40202 32.598 0 21 0C9.40202 0 0 9.40202 0 21C0 32.598 9.40202 42 21 42C32.598 42 42 32.598 42 21Z"/>
                <path fill="#F3F3F3" d="M21 42C32.5978 42 42 32.5978 42 21C42 9.40217 32.5978 0 21 0C9.40217 0 0 9.40217 0 21C0 32.5978 9.40217 42 21 42Z"/>
                <path fill="url(#nke_svg__paint0_linear_4532_196528)" d="M21 42C32.5978 42 42 32.5978 42 21C42 9.40217 32.5978 0 21 0C9.40217 0 0 9.40217 0 21C0 32.5978 9.40217 42 21 42Z" opacity="0.2"/>
                <path fill="#FF1010" d="M39.9846 16L15.1113 26.6797C13.0474 27.5593 11.3149 28.0003 9.91378 28.0003C8.32712 28.0003 7.17562 27.4403 6.46162 26.3203C6.01245 25.5993 5.88062 24.687 6.06495 23.5798C6.25045 22.4727 6.73928 21.2932 7.53262 20.0402C8.19412 19.0263 9.27912 17.6928 10.7864 16.0397C10.2743 16.853 9.8991 17.7449 9.67578 18.6798C9.27912 20.3867 9.63612 21.6397 10.7468 22.44C11.2753 22.8133 12.0033 23 12.9285 23C13.6693 23 14.5023 22.8798 15.4275 22.6395L39.9846 16Z"/>
            </g>
        </g>
    </g>
    <defs>
        <linearGradient id="nke_svg__paint0_linear_4532_196528" x1="21" x2="21" y1="28.5005" y2="42" gradientUnits="userSpaceOnUse">
            <stop stop-color="white"/>
            <stop offset="1" stop-color="#030303" stop-opacity="0.73"/>
        </linearGradient>
        <clipPath id="nke_svg__clip0_4532_196528">
            <rect width="42" height="42" fill="white"/>
        </clipPath>
    </defs>
</svg>
